<?xml version="1.0" encoding="UTF-8"?>
<svg id="Layer_1" data-name="Layer 1" xmlns="http://www.w3.org/2000/svg" viewBox="0 0 9284.75 512">
  <defs>
    <style>
      .cls-1, .cls-2, .cls-3 {
        fill: #dc3746;
      }

      .cls-1, .cls-4 {
        stroke: #dc3746;
        stroke-miterlimit: 10;
        stroke-width: 50px;
      }

      .cls-2 {
        opacity: .5;
      }

      .cls-3 {
        font-family: DMSans-SemiBold, 'DM Sans';
        font-size: 400px;
        font-variation-settings: 'opsz' 14, 'wght' 600;
        font-weight: 600;
      }

      .cls-4 {
        fill: none;
      }
    </style>
  </defs>
  <text class="cls-3" transform="translate(1909.31 390.11)"><tspan x="0" y="0">OpenXRF</tspan></text>
  <g>
    <polygon class="cls-1" points="1769.49 208.3 1659.11 240.18 1548.72 271.99 1547.46 145.76 1658.47 177.01 1769.49 208.3"/>
    <g>
      <path class="cls-2" d="M1539.98,207.04c-29.07-10.83-73.81-20.92-122.19-.59-111.44,46.83-141.51,212.75-195.42,196.26-16.33-5-65.81-61.52-109.68-214.93-59.74-208.93-119.41,91.4-179.09,235.78-59.74,144.4-119.42-289.46-179.16-340.71-59.69-51.25-119.35,430.23-179.11,378.16-59.67-52.04-119.35-485.75-179.09-340.7-59.69,145.03-119.35,445.08-179.09,235.77-36.54-128.14-73.07-217.91-109.62-215.01-16.36,1.3-39.38,23.22-69.49,130.88"/>
      <path class="cls-4" d="M1539.98,207.04c-29.07-10.83-73.81-20.92-122.19-.59-111.44,46.83-141.51,212.75-195.42,196.26-16.33-5-65.81-61.52-109.68-214.93-59.74-208.93-119.41,91.4-179.09,235.78-59.74,144.4-119.42-289.46-179.16-340.71-59.69-51.25-119.35,430.23-179.11,378.16-59.67-52.04-119.35-485.75-179.09-340.7-59.69,145.03-119.35,445.08-179.09,235.77-36.54-128.14-73.07-217.91-109.62-215.01-16.36,1.3-39.38,23.22-69.49,130.88"/>
    </g>
  </g>
</svg>